<svg width="520" height="486" viewBox="0 0 520 486" fill="none" xmlns="http://www.w3.org/2000/svg">
<path fill-rule="evenodd" clip-rule="evenodd" d="M304.577 456.796C424.039 456.796 440.973 405.232 459.087 395.758C477.2 386.282 465.939 367.267 477.819 352.925C496.795 330.016 508.295 341.822 514.576 312.103C520.856 282.382 509.439 273.975 509.439 247.441C509.439 194.28 535.687 169.115 502.167 141.3C468.647 113.486 412.671 116.767 357.309 116.767C254.553 116.767 192.993 -19.8993 55.9398 21.1022C8.70872 35.2321 13.9288 54.488 24.3069 122.538C28.8135 152.088 -5.21344 189.659 0.690439 223.24C11.4731 284.571 39.9506 276.252 93.6809 317.662C102.695 324.609 115.842 324.537 125.669 331.662C142.145 343.607 143.203 362.181 174.004 374.709C223.669 394.91 219.455 456.796 304.577 456.796Z" fill="#889DBD"/>
<path d="M95.3051 357.868C108.945 355.051 117.608 341.172 114.654 326.868C111.701 312.563 98.2487 303.251 84.6087 306.067C70.9688 308.884 62.3058 322.763 65.2596 337.067C68.2133 351.372 81.6651 360.684 95.3051 357.868Z" fill="white"/>
<path fill-rule="evenodd" clip-rule="evenodd" d="M54.3317 229.963C46.4231 217.983 49.3618 209.22 50.1715 198.406C50.8478 189.372 67.0524 171.579 78.8111 184.215C82.2705 187.932 82.064 192.164 88.4774 194.734C104.003 200.957 92.6779 183.734 92.2064 178.887C91.9765 176.522 88.9259 171.589 89.1901 169.207C89.4683 166.707 92.8389 162.541 91.8361 157.684C90.8333 152.828 82.193 152.662 79.6418 151.945C56.9759 145.57 40.2971 130.55 44.9305 120.221C51.387 105.832 90.8902 118.218 101.911 117.827C102.054 117.822 101.899 107.473 102.982 104.873C105.148 99.6706 107.668 94.5339 111.003 89.9957C112.496 87.9631 114.773 86.4285 117.149 85.5929C124.263 83.0914 131.581 80.7337 139.096 80.1169C141.751 79.8993 153.478 58.8115 158.299 51.7949C195.291 -2.03963 298.936 32.8526 263.667 116.631C257.185 132.03 246.221 138.764 245.674 143.847C244.461 155.135 265.573 149.324 274.872 148.583C290.756 147.316 300.037 153.718 293.247 169.379C289.017 179.134 253.794 185.955 237.132 182.972C230.948 181.866 221.824 173.325 218.119 182.641C215.566 189.06 203.538 204.043 189.38 214.037C182.99 218.548 174.61 218.355 169.182 222.326C161.542 227.915 139.976 249.212 129.488 251.374C118.925 253.552 102.624 243.626 100.871 243.116C98.197 242.34 78.7983 242.536 66.6436 230.183C62.9688 226.447 57.227 234.348 54.3317 229.963Z" fill="white"/>
<path d="M218.689 120.634C220.582 120.243 221.8 118.392 221.409 116.499C221.018 114.606 219.166 113.388 217.273 113.779C215.38 114.17 214.162 116.021 214.553 117.914C214.944 119.807 216.796 121.025 218.689 120.634Z" fill="#FFB61D"/>
<path d="M193.769 118.632C195.662 118.241 196.925 116.609 196.59 114.987C196.255 113.364 194.449 112.365 192.556 112.756C190.663 113.147 189.4 114.78 189.735 116.402C190.07 118.025 191.876 119.023 193.769 118.632Z" fill="#FFB61D"/>
<path d="M431.108 108.425C454.907 103.511 470.216 80.2349 465.301 56.4365C460.387 32.638 437.111 17.3293 413.313 22.2435C389.514 27.1577 374.205 50.4339 379.12 74.2323C384.034 98.0308 407.31 113.34 431.108 108.425Z" fill="white"/>
<path d="M368.662 459.732C438.832 445.242 485.014 381.665 471.812 317.728C458.609 253.792 391.022 213.707 320.852 228.197C250.682 242.686 204.5 306.263 217.702 370.2C230.905 434.137 298.492 474.221 368.662 459.732Z" fill="white"/>
<path fill-rule="evenodd" clip-rule="evenodd" d="M245.881 413.266L247.514 413.984C244.944 417.532 239.38 415.01 235.973 412.257C230.492 407.828 224.876 403.078 222.102 396.602C220.523 392.917 219.967 388.889 219.427 384.917L217.248 368.901C216.283 361.803 215.316 354.693 215.037 347.535C214.28 328.164 218.678 308.616 227.658 291.437L227.748 291.265C229.335 288.232 231.067 284.92 230.306 281.596C228.698 274.563 231.337 267.096 235.673 261.33C240.009 255.563 245.899 251.192 251.702 246.906C254.331 244.964 257.88 242.966 260.625 244.741C266.271 248.39 273.381 243.756 279.003 240.07C285.906 235.546 293.612 232.248 301.651 230.377C301.884 230.323 302.121 230.269 302.358 230.214C307.186 229.1 312.622 227.846 314.768 223.455C316.133 220.66 319.761 220.022 322.859 219.732L344.164 217.735C345.792 217.583 347.787 217.605 348.615 219.015C350.835 222.796 355.926 223.436 360.297 223.788C375.833 225.039 391.38 227.935 405.679 234.138C419.978 240.341 433.022 250.021 441.636 263.012C429.943 252.617 417.966 242.04 403.542 235.979C399.415 234.243 395.133 232.901 390.82 231.696C380.643 228.85 370.236 226.75 359.705 225.865C310.818 221.761 260.563 246.192 233.594 287.173C229.683 293.115 226.189 299.485 224.747 306.45L228.713 306.802C223.389 310.706 220.259 317.418 220.688 324.006C222.183 319.434 224.815 315.238 228.279 311.901C227.96 315.971 225.646 319.686 223.378 323.327C220.487 327.967 217.67 332.487 219.149 337.476C219.914 332.461 223.607 328.004 228.393 326.319C222.235 335.627 215.792 346.381 218.394 357.234C219.881 350.321 223.553 343.896 228.753 339.107L222.664 352.479C220.361 357.536 218.02 363.253 219.923 368.474C221.651 362.803 224.74 357.551 228.856 353.283C227.675 359.053 225.409 364.599 222.211 369.545C225.986 368.241 229.37 365.83 231.838 362.69C230.957 364.721 230.25 366.95 230.675 369.122C231.099 371.294 233.001 373.312 235.209 373.161C235.544 371.573 237.445 370.522 238.968 371.084C235.759 375.913 237.297 383.246 242.176 386.378C242.128 384.421 243.372 382.495 245.175 381.734C243.309 387.62 244.189 394.315 247.514 399.518C247.46 396.175 248.598 392.826 250.678 390.209C250.861 398.126 249.206 406.079 245.881 413.266ZM243.584 411.227C246.115 410.653 247.08 407.476 246.8 404.896C246.466 401.808 245.065 398.953 243.686 396.172L235.508 379.671C234.734 380.113 234.833 381.037 234.936 382.005C235.024 382.832 235.116 383.69 234.67 384.307C233.254 383.159 232.674 381.084 233.289 379.367C233.91 377.634 232.827 375.629 231.221 374.73C229.615 373.83 227.651 373.83 225.839 374.159C224.86 374.337 223.842 374.634 223.168 375.366C222.494 376.096 222.332 377.377 223.067 378.047C225.258 380.04 227.096 382.42 228.47 385.043C228.572 385.24 228.674 385.438 228.776 385.639C229.473 387.004 230.189 388.408 231.471 389.213C232.463 389.834 232.935 391.007 233.345 392.102L236.672 400.983C237.277 402.599 237.89 404.249 237.968 405.972C238.046 407.697 237.503 409.54 236.157 410.62L241.329 411.22C242.08 411.307 242.847 411.394 243.584 411.227ZM263.674 249.577C262.768 249.982 261.791 249.32 260.958 248.754L260.862 248.689C260.009 248.111 258.674 247.735 258.089 248.584C251.272 258.475 243.005 267.363 233.634 274.878C231.933 276.241 232.231 278.864 232.689 280.995C232.843 281.707 233.74 282.56 234.064 281.908C235.644 278.726 238.006 276.012 240.342 273.337C246.914 265.807 253.569 258.203 261.718 252.416C262.706 251.713 263.84 250.778 263.674 249.577ZM347.675 221.983C346.945 220.951 345.479 220.838 344.215 220.871C340.77 220.962 337.34 221.406 333.913 221.85C329.207 222.459 324.507 223.069 319.786 222.758C318.273 222.659 317.365 224.366 316.856 225.795C319.147 225.045 321.485 224.435 323.85 223.97C327.969 223.161 332.158 222.791 336.338 222.424C338.463 222.236 340.603 222.049 342.724 222.263C342.971 222.288 343.222 222.317 343.473 222.347C344.928 222.52 346.431 222.699 347.675 221.983ZM307.663 248.912C308.646 248.924 309.691 249.431 310.036 250.352C310.38 251.271 309.931 252.336 309.208 252.997C308.483 253.659 307.533 254.006 306.609 254.337L303.829 255.333C303.551 255.433 303.263 255.538 303.046 255.74C302.419 256.321 302.718 257.464 303.434 257.932C304.15 258.398 305.084 258.352 305.92 258.169C309.812 257.322 312.893 253.725 313.282 249.761C313.375 248.821 313.313 247.809 312.779 247.028C312.508 246.633 312.13 246.32 311.728 246.058C309.863 244.836 307.434 244.644 305.292 245.267C303.15 245.89 301.282 247.263 299.787 248.917C299.07 249.71 298.416 250.599 298.134 251.631C297.853 252.662 298.003 253.861 298.736 254.64C299.015 254.937 299.398 255.171 299.805 255.151C300.212 255.13 300.612 254.778 300.575 254.372C300.473 253.243 301.075 252.141 301.911 251.376C302.747 250.611 303.797 250.126 304.836 249.675C305.738 249.283 306.679 248.9 307.663 248.912ZM242.668 319.85C242.374 313.291 246.375 307.044 251.819 303.375C254.819 301.353 258.452 299.966 262.027 300.52C262.909 300.656 263.791 300.917 264.517 301.436C265.201 301.924 265.712 302.614 266.141 303.334C268.892 307.948 268.432 314.07 265.651 318.666C262.871 323.263 258.056 326.398 252.899 327.904C251.248 328.386 249.431 328.706 247.84 328.053C246.248 327.398 245.103 325.428 245.89 323.897C246.399 323.812 246.768 324.204 247.146 324.604C247.334 324.803 247.523 325.004 247.732 325.15C248.449 325.65 249.42 325.488 250.267 325.269C253.947 324.311 257.518 322.577 260.074 319.762C262.63 316.947 264.04 312.945 263.174 309.242C262.896 308.049 262.371 306.88 261.48 306.039C260.016 304.66 257.753 304.383 255.82 304.935C253.886 305.488 252.234 306.755 250.788 308.152C248.884 309.99 247.222 312.143 246.317 314.629C245.412 317.117 245.323 319.968 246.449 322.362C246.134 323.403 244.564 323.548 243.747 322.831C242.931 322.114 242.718 320.936 242.668 319.85ZM288.123 364.624C285.783 366.958 284.121 370.181 284.392 373.474C284.613 376.14 286.038 378.533 287.427 380.819C288.511 382.602 289.627 384.422 291.243 385.742C294.163 388.126 298.227 388.496 301.991 388.297C303.015 388.243 304.422 387.471 303.866 386.608C300.01 387.366 295.848 386.401 292.719 384.023C289.59 381.646 287.545 377.894 287.243 373.976C287.179 373.152 287.19 372.316 287.368 371.507C287.727 369.874 288.749 368.457 289.93 367.274C292.474 364.726 295.88 363.054 299.452 362.601C302.896 362.164 306.592 362.917 309.237 365.165C311.881 367.413 313.231 371.28 312.028 374.537C311.832 375.066 311.793 375.936 312.357 375.915C314.948 373.704 315.823 369.87 314.942 366.579C314.06 363.288 311.632 360.555 308.724 358.78C307.115 357.799 305.303 357.068 303.42 357.023C300.936 356.964 298.594 358.083 296.378 359.207C293.431 360.703 290.463 362.289 288.123 364.624ZM422.458 339.965C411.84 338.417 400.869 339.353 390.668 342.677C386.391 344.072 382.195 345.911 378.686 348.727C372.068 354.042 368.411 362.832 369.308 371.274C370.206 379.715 375.628 387.54 383.217 391.345C386.095 392.787 389.197 393.663 392.303 394.54C394.423 395.139 396.546 395.737 398.6 396.518C399.221 396.899 398.169 397.64 397.444 397.567C390.704 396.893 383.915 395.119 378.371 391.226C371.626 386.491 367.147 378.665 366.479 370.451C365.811 362.236 368.966 353.79 374.856 348.026C379.516 343.467 385.654 340.645 391.972 339.042C398.291 337.438 404.837 336.978 411.345 336.595C415.409 336.356 420.273 336.53 422.458 339.965ZM321.73 374.581C321.063 373.655 319.212 373.775 319.115 374.913C318.493 382.145 312.981 388.701 305.963 390.555C304.377 390.974 302.741 391.171 301.111 391.362C297.601 391.771 293.97 392.143 290.595 391.099C285.739 389.599 282.056 385.163 280.953 380.202C279.851 375.241 281.165 369.906 284 365.688C283.204 364.405 281.216 365.537 280.379 366.794C275.743 373.762 276.86 383.824 282.502 390.006C288.145 396.189 297.627 398.292 305.566 395.638C313.505 392.984 319.673 385.954 321.888 377.883C322.191 376.782 322.396 375.507 321.73 374.581ZM278.21 419.915C277.982 425.281 279.019 430.697 281.214 435.6C282.198 437.799 282.525 439.056 282.586 439.292C282.593 439.319 282.597 439.333 282.597 439.333C282.597 439.333 282.595 439.319 282.591 439.291C282.55 439.051 282.333 437.764 282.333 435.349C282.334 429.963 280.897 424.583 278.21 419.915ZM285.912 421.469C284.88 425.82 286.167 430.651 289.226 433.914C289.913 434.647 290.444 435.249 290.836 435.693C291.363 436.289 291.638 436.601 291.702 436.562C291.771 436.52 291.588 436.062 291.206 435.102C291.054 434.717 290.868 434.251 290.655 433.699L285.912 421.469ZM292.299 425.364C292.043 428.054 293.259 430.841 295.406 432.482C297.599 434.16 298.312 434.695 297.209 432.165C296.082 429.582 294.395 427.245 292.299 425.364ZM439.481 363.624C439.159 373.79 433.06 382.755 427.039 390.952C427.537 391.612 428.58 391.112 429.199 390.564C435.823 384.695 440.43 376.463 441.447 367.672C442.462 358.882 439.741 349.62 433.739 343.116C433.236 342.57 432.622 342.006 431.88 342.02C431.137 342.034 430.494 343.037 431.041 343.54C436.553 348.61 439.718 356.138 439.481 363.624ZM312.304 299.903C311.957 298.381 311.622 296.724 312.281 295.309C313.189 293.36 315.558 292.665 317.653 292.182C318.587 291.967 319.534 291.75 320.493 291.77C322.536 291.813 324.393 292.913 326.084 294.06C326.458 294.314 326.868 294.638 326.886 295.09C326.909 295.65 326.286 296.045 325.724 296.051C325.352 296.054 324.993 295.945 324.633 295.837C324.452 295.781 324.27 295.727 324.087 295.687C321.963 295.217 319.903 296.679 318.432 298.281C318.202 298.533 317.96 298.843 318.026 299.179C318.091 299.516 318.435 299.714 318.749 299.855C321.465 301.066 324.638 301.214 327.454 300.259C328.128 300.031 328.885 299.603 328.918 298.892C328.932 298.616 328.838 298.312 328.747 298.02C328.596 297.531 328.453 297.07 328.835 296.806C329.034 296.669 329.296 296.68 329.537 296.698C331.198 296.815 333.183 297.152 333.831 298.686C334.018 299.129 334.06 299.624 334.009 300.102C333.861 301.502 332.882 302.782 331.569 303.292C330.986 303.518 330.358 303.599 329.738 303.678C328.118 303.885 326.496 304.091 324.865 304.177C321.87 304.336 318.854 304.084 315.926 303.431C314.911 303.205 313.838 302.888 313.174 302.087C312.671 301.477 312.48 300.675 312.304 299.903ZM363.63 249.445C362.157 247.132 359.482 245.632 356.739 245.584C355.891 245.57 354.969 245.72 354.385 246.335C353.802 246.951 353.812 248.143 354.575 248.514C355.316 248.873 355.184 250.122 354.459 250.509C353.732 250.897 352.787 250.551 352.248 249.929C351.71 249.307 351.488 248.478 351.31 247.674C351.072 246.603 350.911 245.384 351.548 244.488C351.791 244.148 352.129 243.889 352.466 243.641C353.863 242.617 355.444 241.663 357.175 241.678C358.825 241.691 360.33 242.583 361.681 243.528C362.79 244.302 363.86 245.134 364.885 246.016C365.788 246.793 366.679 247.638 367.187 248.716C367.696 249.794 367.753 251.16 367.041 252.116C366.345 253.053 365.039 253.401 363.897 253.163C362.889 252.951 361.908 252.219 361.76 251.198C361.612 250.179 362.666 249.079 363.63 249.445ZM387.183 318.341C389.475 317.778 391.242 315.537 391.254 313.175C391.261 311.74 390.536 310.19 389.182 309.711C388.194 309.36 387.105 309.636 386.096 309.923C384.698 310.32 383.255 310.76 382.176 311.733C381.098 312.706 380.499 314.37 381.179 315.652C382.286 317.739 384.889 318.905 387.183 318.341ZM386.761 314.948C386.34 315.165 385.68 315.187 385.539 314.736C385.482 314.548 385.546 314.345 385.63 314.167C386.103 313.177 387.281 312.577 388.36 312.779C388.198 313.695 387.588 314.523 386.761 314.948ZM380.587 280.55C380.024 279.764 380.533 278.595 381.346 278.073C381.998 277.653 382.772 277.515 383.543 277.378C383.734 277.344 383.926 277.31 384.114 277.271C385.061 277.079 386.072 276.696 386.529 275.845C386.691 275.545 386.757 275.14 386.53 274.886C386.292 274.62 385.874 274.656 385.523 274.713C383.087 275.107 380.258 275.795 379.295 278.067C379.088 278.555 378.327 278.569 377.954 278.193C377.58 277.817 377.521 277.229 377.573 276.702C377.76 274.811 379.116 273.173 380.788 272.273C382.461 271.373 384.411 271.122 386.311 271.142C386.95 271.148 387.623 271.194 388.164 271.537C388.593 271.809 388.894 272.243 389.127 272.695C390.238 274.855 389.894 277.678 388.296 279.507C386.698 281.338 383.947 282.059 381.658 281.249C381.249 281.104 380.839 280.902 380.587 280.55ZM381.071 322.848C382.479 323.947 384.067 324.88 385.821 325.216C389.368 325.894 393.245 323.724 394.522 320.347C394.987 319.117 394.943 317.403 393.747 316.861C392.843 320.691 388.38 323.259 384.614 322.115C383.892 321.896 383.208 321.565 382.566 321.17C379.649 319.377 377.572 315.868 378.335 312.529C378.585 311.441 379.111 310.434 379.723 309.5C381.055 307.463 383.184 305.57 385.606 305.826C385.706 305.837 385.807 305.852 385.908 305.866C386.25 305.913 386.593 305.962 386.922 305.871C387.348 305.753 387.715 305.269 387.514 304.875C387.455 304.759 387.355 304.668 387.254 304.585C385.472 303.106 382.611 303.148 380.873 304.678C378.805 306.5 376.749 308.562 376.012 311.218C374.814 315.541 377.535 320.087 381.071 322.848ZM405.606 254.864C405.535 255.035 405.605 255.235 405.672 255.428C405.752 255.656 405.827 255.871 405.655 256.008C405.026 256.507 404.176 256.653 403.376 256.584C401.192 256.398 399.414 254.814 397.866 253.262C396.961 252.355 396.044 251.381 395.666 250.156C395.287 248.932 395.622 247.389 396.748 246.777C398.004 246.094 399.534 246.807 400.777 247.51C402.18 248.305 403.616 249.125 404.646 250.366C405.676 251.606 406.228 253.376 405.606 254.864ZM400.143 251.148C400.493 251.367 400.732 251.71 400.972 252.053C401.208 252.392 401.444 252.73 401.785 252.949C402.218 253.227 402.792 253.269 403.261 253.058C402.033 251.831 400.679 250.731 399.227 249.78C398.929 249.944 399.004 250.422 399.255 250.653C399.407 250.793 399.595 250.879 399.785 250.966C399.907 251.022 400.029 251.077 400.143 251.148ZM252.586 417.748C252.875 419.642 253.486 421.779 255.226 422.583C255.666 422.197 255.477 421.491 255.292 420.937C254.151 417.524 254.509 413.92 254.869 410.292C255.127 407.696 255.385 405.086 255.097 402.527C255.014 401.784 254.605 400.831 253.868 400.961C253.318 401.057 253.089 401.711 252.977 402.259C251.934 407.345 251.801 412.616 252.586 417.748ZM383.244 318.96C385.094 319.342 387.131 319.7 388.783 318.782C389.439 318.417 389.978 317.876 390.507 317.342C390.727 318.376 390.025 319.435 389.1 319.943C388.174 320.452 387.075 320.524 386.017 320.524C384.843 320.523 383.324 320.131 383.244 318.96ZM268.239 434.006C268.504 433.145 268.381 432.219 268.256 431.327L267.257 424.224C266.767 420.738 266.273 417.239 265.308 413.854C265.187 413.427 265.044 412.98 264.716 412.681C264.387 412.383 263.812 412.31 263.523 412.647C263.31 412.894 263.321 413.257 263.345 413.583C263.649 417.673 264.217 421.743 265.046 425.76C265.648 428.672 266.428 431.647 268.239 434.006ZM259.299 429.645C258.932 430.12 258.115 429.948 257.754 429.469C257.392 428.99 257.357 428.348 257.339 427.749C257.143 421.474 257.103 415.196 257.216 408.919C257.219 408.762 257.223 408.599 257.294 408.459C257.565 407.923 258.411 408.221 258.786 408.69C259.707 409.839 259.731 411.444 259.712 412.916L259.507 428.739C259.504 429.055 259.492 429.395 259.299 429.645ZM271.329 427.33C271.625 429.635 272.454 431.833 273.277 434.007C273.57 434.78 274.376 435.719 275.02 435.199L273.179 419.834C273.104 419.209 272.996 418.521 272.512 418.119C272.027 417.717 271.07 417.945 271.079 418.574L271.154 423.963C271.17 425.087 271.186 426.215 271.329 427.33ZM406.81 349.791C402.355 348.592 397.299 348.831 393.506 351.459C390.674 353.422 383.085 360.899 383.458 368.303C383.707 373.26 384.771 378.15 387.444 382.411L387.87 383.079C388.651 384.28 390.566 385.442 391.221 384.168C387.613 380.035 385.875 374.33 386.566 368.888C387.257 363.446 390.364 358.355 394.89 355.255C395.842 354.602 396.861 354.031 397.961 353.682C400.186 352.977 402.612 353.224 404.868 353.827C409.723 355.124 415.945 357.68 418.986 361.681C421.918 365.539 424.5 370.337 423.627 375.104C422.756 379.87 411.511 385.608 411.511 385.608L413.35 387.732C413.35 387.732 419.744 384.974 423.181 381.123C437.61 364.962 411.071 350.939 406.81 349.791Z" fill="#00160A"/>
<path fill-rule="evenodd" clip-rule="evenodd" d="M94.7962 357.091C88.8813 359.046 82.1668 359.029 76.6113 356.211C72.6769 354.215 69.5086 350.941 66.998 347.313C64.2722 343.374 62.2408 338.956 61.0247 334.324C60.5663 332.579 60.2213 330.776 60.3757 328.98C60.6289 326.023 62.2001 323.354 63.8604 320.895C67.3934 315.661 71.7885 310.633 77.7008 308.418C81.73 306.908 86.1423 306.829 90.4414 306.999C93.8183 307.132 97.2224 307.413 100.449 308.414C107.581 310.628 113.462 316.514 115.668 323.647C117.874 330.781 118.129 335.768 110.266 346.918C105.885 351.347 100.711 355.134 94.7962 357.091ZM100.55 331.964C99.6343 332.484 98.7733 333.243 97.7211 333.284C95.5718 333.366 94.5878 330.605 94.6045 328.454C94.6537 322.295 97.6291 316.224 102.466 312.412C100.763 310.456 97.4761 310.995 95.4061 312.559C93.3368 314.121 91.9536 316.432 89.9925 318.129C89.0164 318.974 87.7969 319.686 86.511 319.568C84.396 319.376 83.0803 316.944 83.3029 314.831C83.5266 312.719 84.8275 310.898 86.0852 309.187C80.4949 310.599 75.2869 313.492 71.1335 317.491C67.8814 320.621 65.143 325.195 66.5875 329.471C69.1507 326.305 72.3999 323.697 76.0456 321.878C76.8193 321.492 77.824 321.165 78.4805 321.726C78.9787 322.151 79.0254 322.908 78.9038 323.551C78.3012 326.742 74.8859 328.506 73.1199 331.231C72.8878 331.589 72.6777 331.99 72.6951 332.415C72.7283 333.251 73.6535 333.819 74.4884 333.779C75.3233 333.74 76.0689 333.272 76.7706 332.819C78.2289 331.878 79.687 330.937 81.1451 329.995C82.2012 329.313 83.4761 328.606 84.6451 329.066C85.8539 329.543 86.2991 331.124 85.9438 332.375C85.5886 333.625 84.6538 334.613 83.7507 335.548C81.5747 337.802 79.3988 340.056 77.2228 342.31C75.401 344.197 73.4302 346.636 74.184 349.148C74.8937 351.513 77.8934 352.578 80.2679 351.904C82.6435 351.23 84.4454 349.299 85.8712 347.283C87.296 345.267 88.4986 343.057 90.2929 341.361C91.4644 340.254 93.2886 339.386 94.6272 340.284C95.6611 340.976 95.8836 342.401 95.8197 343.644C95.6356 347.226 93.7953 350.691 90.9288 352.849C93.6481 352.888 96.3729 352.417 98.9224 351.47C100.376 350.931 101.839 350.179 102.696 348.886C103.553 347.594 103.571 345.639 102.374 344.654C100.587 343.185 100.083 340.579 100.532 338.309C100.982 336.041 102.222 334.019 103.44 332.052C102.791 331.223 101.465 331.443 100.55 331.964ZM113.408 333.401C114.115 329.836 113.371 326.138 112.251 322.681C111.013 318.857 108.687 314.682 104.709 314.107C99.7961 317.511 96.7101 323.406 96.7121 329.382C96.7119 329.885 96.743 330.418 97.0295 330.83C97.316 331.243 97.9479 331.452 98.3336 331.13C99.6567 330.027 101.396 329.187 103.071 329.593C104.745 329.998 105.977 332.124 104.997 333.542C103.915 335.108 102.808 336.733 102.445 338.602C102.082 340.47 102.665 342.662 104.313 343.616C105.551 344.331 105.952 346.175 105.122 347.341C107.874 345.849 109.422 342.873 110.809 340.067C111.871 337.923 112.942 335.747 113.408 333.401ZM75.9623 323.836C73.1811 325.761 70.5352 327.884 68.053 330.182C67.4619 330.729 66.8696 331.3 66.5065 332.019C66.0162 332.988 65.9941 334.12 66.0129 335.206C66.0715 338.716 66.5097 342.414 68.5974 345.235C69.2642 346.136 70.0774 346.916 70.8867 347.691C71.1258 347.919 71.3927 348.161 71.7231 348.184C72.0526 348.208 72.409 347.869 72.268 347.569C71.8335 346.648 72.3721 345.576 72.9497 344.736C76.3357 339.821 81.5636 336.291 84.4333 331.057C83.7053 330.495 82.6754 331.055 81.9255 331.586C80.1383 332.852 78.2591 333.986 76.3081 334.978C75.3012 335.491 74.1608 335.976 73.0749 335.666C71.4849 335.214 70.8048 333.185 71.2495 331.593C71.6941 330.001 72.9265 328.769 74.1259 327.632C75.3252 326.495 76.5851 325.307 77.1145 323.741C76.878 323.378 76.3175 323.589 75.9623 323.836ZM92.1977 348.368C93.3131 346.992 94.4959 345.398 94.2714 343.641C94.1533 342.722 93.3363 341.744 92.454 342.024C92.1825 342.11 91.9587 342.302 91.7505 342.496C88.3305 345.688 86.7369 350.831 82.5537 352.928C83.9263 353.217 85.3262 353.377 86.7285 353.402C87.1463 353.41 87.5779 353.403 87.9594 353.234C88.4046 353.037 88.7277 352.646 89.0337 352.269C90.0881 350.969 91.1424 349.668 92.1977 348.368ZM87.7596 310.088C87.0946 311.243 86.4295 312.397 85.7645 313.552C85.2375 314.466 84.7124 315.637 85.3046 316.511C85.7402 317.154 86.6551 317.33 87.4001 317.108C88.1459 316.885 88.7525 316.349 89.2981 315.795C91.2423 313.82 92.8443 311.357 95.3594 310.193C93.3826 309.92 91.4059 309.648 89.4291 309.375C89.0181 309.318 88.5622 309.271 88.22 309.507C88.0149 309.648 87.8838 309.872 87.7596 310.088Z" fill="#00160A"/>
<path fill-rule="evenodd" clip-rule="evenodd" d="M96.961 187.313C97.7209 191.941 95.2576 197.661 90.5893 198.101C88.0215 196.169 85.7769 193.566 83.5588 190.994C79.2994 186.054 75.1359 181.227 68.969 181.471C62.9128 181.71 58.403 187.175 55.7774 192.639C51.9741 200.552 50.3435 209.495 51.1072 218.241C51.5572 223.382 55.1072 229.881 60.004 228.249C65.5966 226.383 70.6427 230.01 75.7743 233.699C80.5242 237.113 85.3487 240.581 90.7482 239.797C97.1781 238.862 103.172 241.542 109.24 244.254C113.293 246.065 117.379 247.891 121.648 248.664C129.68 250.12 138.057 247.697 145.015 243.427C151.971 239.156 157.688 233.153 162.984 226.941L163.261 226.615C166.151 223.222 169.177 219.668 173.355 218.157C194.719 210.427 212.404 193.102 220.571 171.901C240.807 181.974 265.958 181.483 285.787 170.628C289.151 168.786 292.46 166.576 294.556 163.364C296.653 160.153 297.281 155.732 295.214 152.502C292.952 148.97 288.225 147.837 284.048 148.22C281.759 148.43 279.528 148.996 277.295 149.562C275.454 150.027 273.613 150.494 271.736 150.762C260.376 152.385 249.393 146.678 239.333 141.153C250.797 134.739 258.711 123.133 262.902 110.683C267.095 98.2338 267.906 84.9063 267.872 71.7705C267.854 64.8575 267.295 57.1863 262.309 52.3965C260.078 50.2528 257.205 48.9539 254.341 47.6585C251.116 46.2007 247.904 44.7487 245.637 42.1033C241.277 37.0145 234.462 34.9094 228.025 33.0404C211.182 28.1505 192.046 23.5054 176.961 32.4526C171.085 35.9378 166.49 41.1781 162.023 46.3472C154.606 54.9311 146.805 64.8058 147.484 76.1297C131.592 72.7731 113.959 81.9961 107.654 96.9652C106.211 100.389 105.319 104.014 104.427 107.635C103.378 111.898 102.33 116.157 100.387 120.075C88.6337 117.509 76.7739 115.429 64.8479 113.844C59.5608 113.141 53.3634 112.849 49.7916 116.81C46.9283 119.987 46.9244 125.011 48.7951 128.856C50.6667 132.702 54.0661 135.57 57.5762 138.014C65.1895 143.316 73.7968 147.188 82.8153 149.367C83.1062 149.437 83.3988 149.506 83.6924 149.575C86.5129 150.243 89.4124 150.927 91.5981 152.796C94.011 154.861 95.019 158.966 92.7366 161.174C89.3648 164.434 89.8196 170.019 91.5914 174.361C92.1969 175.845 92.9275 177.286 93.6562 178.726C95.0608 181.499 96.462 184.266 96.961 187.313ZM207.876 188.647C200.288 201.066 187.783 210.071 174.046 214.878C160.309 219.685 145.4 220.505 130.938 218.883C134.564 218.097 136.163 212.783 133.571 210.128C128.008 220.394 117.553 226.896 107.556 232.931C98.525 238.382 86.342 238.467 77.5772 232.595C68.8126 226.725 64.2477 214.973 67.3449 204.889C68.692 200.505 71.6721 196.3 76.0551 194.953C80.438 193.605 86.0455 196.271 86.5944 200.823C84.0159 200.928 81.8564 203.603 82.298 206.145C91.688 203.035 99.5377 195.576 103.123 186.356C104.36 183.174 105.102 179.839 105.846 176.5C106.345 174.259 106.844 172.016 107.494 169.817C109.11 164.344 111.941 158.849 116.896 156.019C120.874 153.748 125.65 153.502 130.226 153.311L150.556 152.462C151.75 150.879 148.936 149.362 146.953 149.374C140.552 149.416 134.17 149.967 127.788 150.519C121.87 151.03 115.951 151.541 110.015 151.646C97.6787 151.865 84.8635 150.16 74.4284 143.575C79.5459 138.954 82.7594 132.283 83.1829 125.401C83.2689 124.008 81.9239 122.042 81.0416 123.123C80.7323 127.598 80.3598 132.275 77.9876 136.083C75.6152 139.89 70.5579 142.428 66.5214 140.472C61.2808 137.933 55.7419 135.125 52.8015 130.098C49.8612 125.072 51.0984 117.202 56.6092 115.319C59.0823 114.474 61.7894 114.987 64.3511 115.508L90.192 120.764C97.8824 122.328 105.684 123.9 113.516 123.38C119.014 123.015 124.386 121.625 129.72 120.242L144.843 116.321C145.461 116.16 146.095 115.993 146.616 115.625C148.008 114.64 148.124 112.656 148.11 110.951C147.942 90.3094 148.944 68.2727 160.887 51.4375C166.231 43.9039 173.6 37.8217 182.011 34.0033C190.301 30.2386 200.016 28.7237 208.542 31.9186C196.18 35.5532 185.126 43.4809 177.72 54.0244C172.938 50.7145 166.437 55.6658 164.365 61.1003C161.153 69.5242 163.454 79.7671 169.961 86.0073C175.437 91.261 178.559 98.2649 181.688 105.285C184.564 111.737 187.445 118.202 192.167 123.335C199.636 131.456 211.098 135.23 222.121 134.788C233.145 134.346 243.743 130.037 253.025 124.071C244.155 137.783 226.941 145.577 210.785 143.197C209.607 143.024 208.426 142.802 207.242 142.579L207.241 142.579C203.496 141.874 199.736 141.166 196.062 142.004C198.713 143.824 201.839 144.944 205.043 145.223C202.835 151.787 200.435 158.287 197.846 164.711C197.515 165.532 197.127 166.416 196.347 166.838C195.479 167.308 194.412 167.055 193.467 166.77C185.653 164.417 178.281 160.604 171.845 155.585L164.3 170.239C170.934 175.524 178.301 179.891 186.123 183.173C179.488 196.301 167.352 206.538 153.294 210.865C168.285 208.422 181.796 198.227 188.261 184.483C194.657 186.455 201.231 187.851 207.876 188.647ZM231.159 69.0921C233.665 64.8129 233.779 59.4469 232.455 54.6677C231.131 49.8885 228.498 45.5853 225.726 41.4736C230.299 39.9048 235.45 40.6466 239.813 42.7311C244.175 44.8167 247.832 48.145 251.026 51.7745C254.897 56.1759 258.205 61.1235 260.354 66.5768C265.413 79.4165 263.672 93.9973 259.557 107.17C258.758 109.728 257.857 112.292 256.366 114.518C254.864 116.76 252.814 118.581 250.662 120.209C241.781 126.924 230.712 130.697 219.578 130.804C225.161 123.669 228.283 114.826 229.551 105.856C230.819 96.8858 230.315 87.7513 229.219 78.7587L229.213 78.7085C228.937 76.4409 228.646 74.058 229.517 71.9474C229.805 71.2497 230.211 70.6106 230.617 69.9706C230.801 69.6798 230.986 69.3891 231.159 69.0921ZM226.769 108.48C225.314 115.983 222.124 123.272 216.867 128.818C216.251 129.467 215.578 130.112 214.731 130.4C213.983 130.655 213.169 130.609 212.382 130.536C206.782 130.012 201.194 128.147 196.891 124.523C195.33 123.208 193.957 121.683 192.683 120.088C183.401 108.474 179.361 92.8255 181.861 78.1698C181.98 77.4695 182.195 76.6666 182.847 76.3848C183.689 76.0199 184.56 76.7747 185.215 77.4176C190.578 82.6698 198.805 84.1393 206.205 82.8796C213.604 81.619 220.366 77.9798 226.81 74.1306C226.212 77.501 226.618 80.946 227.019 84.3584L227.02 84.363C227.07 84.791 227.12 85.2182 227.169 85.6448C228.027 93.2392 228.224 100.977 226.769 108.48ZM211.508 44.9865C215.075 43.3248 219.401 42.1453 222.821 44.0935C223.925 44.7217 224.842 45.6365 225.647 46.6203C230.693 52.792 231.274 62.2296 227.023 68.9731C222.108 76.7692 212.359 79.983 203.217 81.1558C199.938 81.5761 196.518 81.7959 193.402 80.6894C189.37 79.2569 186.427 75.8366 183.68 72.5561C190.244 61.0245 199.481 50.59 211.508 44.9865ZM267.018 155.116C266.481 158.341 265.943 161.61 266.243 164.866C266.542 168.121 267.778 171.418 270.258 173.549C254.436 177.89 237.098 176.463 222.199 169.594C225.071 162.852 226.942 155.684 227.729 148.397C228.041 145.519 231.2 143.665 234.095 143.691C236.76 143.715 239.245 144.885 241.67 146.027L241.966 146.166C242.077 146.218 242.186 146.27 242.295 146.321C250.228 150.024 258.639 152.577 267.018 155.116ZM163.877 219.836C161.966 223.224 159.456 226.236 156.854 229.126C151.421 235.162 145.315 240.899 137.784 243.936C126.748 248.388 113.297 246.115 104.335 238.286L127.325 223.565C127.876 223.213 128.447 222.852 129.093 222.75C129.458 222.693 129.826 222.722 130.196 222.751C130.443 222.769 130.689 222.788 130.935 222.782C131.77 222.761 132.551 222.453 133.335 222.144C133.823 221.951 134.313 221.758 134.818 221.633C136.676 221.173 138.581 221.657 140.465 222.136C140.944 222.258 141.421 222.379 141.896 222.485C149.184 224.104 156.721 221.96 163.877 219.836ZM104.698 120.65C104.437 120.294 104.525 119.799 104.627 119.37C107.433 107.542 112.064 96.1482 118.305 85.716C125.721 92.4088 131.524 100.879 135.087 110.212C135.799 112.078 136.055 114.816 134.17 115.475C125.134 118.635 115.653 120.517 106.096 121.044C105.59 121.072 104.997 121.057 104.698 120.65ZM139.525 112.443C135.346 102.346 129.191 93.0696 121.512 85.2942C125.814 81.6913 131.544 80.4112 137.034 79.245C140.502 78.5082 144.31 77.8144 147.434 79.4886L144.945 101.175C144.522 104.857 144.106 108.638 145.034 112.226L140.719 113.229C140.565 113.265 140.406 113.302 140.251 113.273C139.873 113.203 139.673 112.798 139.525 112.443ZM206.39 152.142C207.118 149.938 207.763 147.612 207.39 145.32C213.073 146.533 219.026 146.456 224.676 145.099C225.563 144.886 225.828 146.267 225.638 147.159C225.063 149.858 224.487 152.561 223.721 155.212C222.933 157.932 221.947 160.591 220.961 163.247L218.598 169.612C218.275 170.484 217.94 171.376 217.331 172.078C215.698 173.963 212.766 173.859 210.326 173.34C206.28 172.478 202.387 170.903 198.881 168.708C201.963 163.474 204.486 157.91 206.39 152.142ZM73.4825 185.877C75.5718 187.237 77.1717 189.213 78.7357 191.155L73.7445 193C72.0824 193.615 70.3795 194.254 69.0442 195.42C67.745 196.554 66.8894 198.108 66.1801 199.681C63.2173 206.257 62.4122 213.785 63.9189 220.84C64.4629 223.388 61.8452 225.854 59.2422 225.739C56.6394 225.625 54.4374 223.539 53.4699 221.12C52.5024 218.701 52.5484 216.004 52.7758 213.409C53.5751 204.275 56.5652 195.167 62.3651 188.066C63.473 186.708 64.7363 185.39 66.3692 184.754C68.6934 183.851 71.3924 184.517 73.4825 185.877ZM292.791 153.563C293.551 154.199 294.194 155.036 294.375 156.011C294.611 157.271 294.055 158.541 293.397 159.641C289.576 166.04 282.329 169.501 275.279 171.917C274.814 172.077 274.324 172.235 273.84 172.156C273.44 172.092 273.085 171.872 272.759 171.635C270.59 170.047 269.306 167.453 268.882 164.799C268.458 162.146 268.818 159.425 269.433 156.808C269.562 156.257 269.725 155.674 270.151 155.301C270.49 155.004 270.948 154.888 271.387 154.781L280.093 152.662C282.237 152.14 284.404 151.616 286.61 151.605C288.817 151.595 291.099 152.146 292.791 153.563ZM177.359 91.8845C172.365 86.0431 168.165 79.5245 164.91 72.5627L165.521 68.4023C166.56 64.5647 168.115 60.8684 170.131 57.4431C170.952 56.0475 172.784 55.5178 174.384 55.7593C175.985 56.0008 177.416 56.8589 178.799 57.6999L185.025 61.4816C185.211 61.5942 185.405 61.7164 185.501 61.9115C185.681 62.2772 185.437 62.7 185.207 63.0377C183.283 65.8612 181.692 68.9201 180.585 72.1532C178.911 77.0391 178.365 82.2276 177.83 87.3649L177.359 91.8845ZM182.56 51.9056C191.87 43.9984 202.238 36.2099 214.384 34.9169C220.734 34.2405 227.204 35.4295 233.128 37.8116C217.496 37.2004 201.745 44.2733 191.817 56.3636C190.283 58.2318 187.849 60.4267 185.835 59.0883C185.319 58.7456 184.91 58.1955 184.512 57.6601C183.875 56.8022 183.265 55.9807 182.278 56.1C181.337 56.2145 180.656 55.0512 180.866 54.1262C181.077 53.2019 181.838 52.5195 182.56 51.9056ZM175.891 161.251C178.399 162.799 181.068 164.068 183.729 165.333L194.483 170.446C192.182 173.561 189.959 176.732 187.815 179.956C180.528 177.521 173.684 173.769 167.712 168.937C169.711 165.694 171.585 162.376 173.329 158.989C173.929 159.97 174.912 160.647 175.891 161.251ZM112.456 154.832C108.42 159.674 104.261 164.749 102.788 170.878C102.501 172.075 102.316 173.31 102.131 174.543L102.132 174.543C101.739 177.164 101.348 179.775 99.9719 182.003C99.1362 181.942 98.6272 181.082 98.2638 180.326L94.7577 173.04C94.2849 172.056 93.8035 171.045 93.7175 169.957C93.631 168.875 93.943 167.805 94.2518 166.764L97.5357 155.687C97.6084 155.44 97.6855 155.187 97.8439 154.984C98.2376 154.482 98.9754 154.456 99.6126 154.474L112.456 154.832ZM198.677 171.847C202.723 174.537 207.402 176.266 212.225 176.852C212.894 175.881 214.61 175.967 215.179 176.999C214.068 179.336 212.779 181.588 211.329 183.732C210.682 184.69 209.339 184.807 208.184 184.792C202.54 184.717 196.909 183.743 191.567 181.917C191.21 181.794 190.796 181.6 190.747 181.226C190.715 180.974 190.869 180.74 191.015 180.532L196.333 172.988C196.891 172.197 197.871 171.31 198.677 171.847ZM264.988 68.1791C265.089 68.9418 265.163 69.8007 264.679 70.3974C263.405 64.516 260.678 58.9535 256.808 54.3438C256.106 53.5077 255.367 52.7015 254.576 51.9494C254.474 51.8531 254.371 51.756 254.268 51.6601C253.473 50.9154 252.659 50.154 252.287 49.1408L261.001 55.0357C261.802 55.5774 262.629 56.1461 263.131 56.9729C263.616 57.7709 263.748 58.7272 263.87 59.6523L264.988 68.1791ZM254.78 60.5017L252.732 58.8187C250.479 56.968 247.778 54.9982 244.927 55.6104C243.272 55.9656 241.933 57.1409 240.675 58.2738L238.721 60.0333C238.188 60.5148 237.64 61.0126 237.331 61.6605C236.438 63.5305 237.847 65.676 239.374 67.0755C240.431 68.0451 241.638 68.9334 243.046 69.205C244.867 69.5575 246.716 68.8293 248.359 67.9701C250.61 66.7945 252.716 65.3431 254.617 63.66C255.225 63.1223 255.867 62.3874 255.661 61.6017C255.54 61.1394 255.15 60.8046 254.78 60.5017ZM241.049 65.1035C240.676 64.7221 240.288 64.3125 240.171 63.7928C239.943 62.7764 240.812 61.8732 241.601 61.1925L244.405 58.7726C244.83 58.407 245.272 58.0312 245.81 57.876C246.349 57.7215 247.013 57.8531 247.308 58.3296C248.178 59.7345 249.775 60.6607 251.428 60.7174C251.962 60.7356 252.277 61.4025 252.137 61.9192C251.998 62.4359 251.566 62.8135 251.148 63.1471C249.651 64.3401 248.046 65.3955 246.359 66.2967C245.682 66.6583 244.957 67.0026 244.191 66.9867C242.937 66.9605 241.925 66.0014 241.049 65.1035ZM221.823 85.6741C218.75 86.7215 219.377 92.5349 221.495 95.2505C221.93 95.8092 222.54 96.3494 223.246 96.2886C224.453 96.1839 224.789 94.5951 224.8 93.3829L224.801 93.3551C224.815 91.7585 224.878 84.6333 221.823 85.6741ZM207.174 96.6379C207.487 95.0313 207.342 93.3384 206.759 91.8086C206.489 91.0977 206.107 90.3997 205.496 89.9475C204.884 89.4956 204.003 89.3461 203.358 89.7486C202.774 90.1121 202.509 90.8181 202.339 91.4845C201.74 93.8399 201.845 96.3678 202.635 98.6658C203.003 99.7343 204.516 100.035 205.489 99.4622C206.463 98.8886 206.957 97.7467 207.174 96.6379ZM215.741 91.2678C216.143 90.7564 216.919 91.3599 217.248 91.9206C218.329 93.7638 219.305 95.6687 220.171 97.6221C220.718 98.8571 221.229 100.151 221.222 101.502C221.211 103.406 220.148 105.182 218.75 106.474C217.352 107.766 215.634 108.649 213.938 109.517C213.491 109.746 212.914 109.965 212.524 109.648C212.193 109.378 212.211 108.839 212.445 108.482C212.674 108.131 213.05 107.91 213.411 107.699L213.433 107.686C216.038 106.161 218.674 103.852 218.706 100.834C218.723 99.1739 217.944 97.6787 217.162 96.1778L217.161 96.1769C216.448 94.8097 215.732 93.4365 215.613 91.9298C215.595 91.7008 215.598 91.4483 215.741 91.2678ZM194.768 89.0188C193.809 88.156 194.065 86.4747 194.992 85.5764C195.918 84.679 197.273 84.3962 198.558 84.2879C200.093 84.158 201.644 84.2213 203.163 84.4747C203.487 84.528 203.84 84.6091 204.034 84.8737C204.394 85.3628 203.894 86.0909 203.3 86.219C202.822 86.3211 202.339 86.185 201.862 86.0503C201.746 86.0171 201.631 85.9846 201.516 85.9559C198.93 85.3002 195.977 86.6405 194.768 89.0188ZM221.618 82.8576C222.688 82.4332 223.921 82.4352 224.989 82.864C225.436 83.0435 225.899 82.4798 225.799 82.009C225.7 81.5379 225.264 81.2179 224.832 81.0068C223.9 80.5523 222.828 80.3914 221.804 80.5523C221.143 80.6567 220.447 80.9385 220.135 81.5297C219.823 82.1219 220.152 83.0336 220.82 83.0728C221.058 83.0862 221.285 82.9933 221.508 82.9023C221.545 82.8867 221.582 82.8721 221.618 82.8576ZM214.062 114.676C214.337 114.432 214.815 114.651 214.938 114.997C215.062 115.343 214.933 115.726 214.759 116.05C213.892 117.675 211.978 118.531 210.137 118.591C208.295 118.652 206.502 118.041 204.791 117.359C203.986 117.038 203.188 116.7 202.399 116.344C201.581 115.974 200.691 115.498 200.417 114.643C200.144 113.788 201.074 112.667 201.843 113.13C203.732 114.27 205.663 115.427 207.813 115.921C209.965 116.415 212.412 116.141 214.062 114.676ZM181.945 128.935C172.333 116.123 166.161 100.756 164.24 84.8561C164.207 84.5836 164.18 84.2919 164.312 84.0524C164.499 83.7144 165.011 83.6163 165.31 83.861C167.076 92.455 168.857 101.099 172.082 109.258C175.308 117.417 180.086 125.147 186.947 130.616C187.151 130.779 187.359 130.941 187.566 131.104C188.741 132.022 189.926 132.948 190.747 134.183C187.203 134.877 184.112 131.823 181.945 128.935ZM174.506 63.3237C174.357 63.2192 174.191 63.1339 174.013 63.099C173.496 62.9966 172.988 63.3248 172.641 63.7203C171.257 65.2945 171.866 68.147 173.772 69.0192C174.425 68.1645 175.095 67.2777 175.36 66.2357C175.627 65.1925 175.387 63.9428 174.506 63.3237ZM191.948 75.28C194.034 76.3375 196.301 77.0364 198.621 77.3354C206.106 78.3007 213.587 75.0674 219.636 70.5525C220.559 69.8628 221.921 69.8276 222.88 70.4681C219.234 74.4685 214.319 77.2949 209.028 78.4346C207.861 78.6864 206.679 78.8575 205.494 79.0071C203.072 79.3122 200.61 79.5247 198.193 79.1741C195.776 78.8242 193.383 77.8652 191.68 76.1155L191.948 75.28ZM287.889 152.66C287.871 152.911 288.11 153.097 288.323 153.233L291.531 155.285C291.655 154.469 291.143 153.661 290.462 153.193C289.781 152.726 288.956 152.53 288.151 152.344C288.01 152.38 287.9 152.514 287.889 152.66Z" fill="#00160A"/>
<path fill-rule="evenodd" clip-rule="evenodd" d="M439.402 13.2359C442.88 13.659 445.3 10.0827 447.66 7.49245C451.312 3.48407 456.691 1.10599 462.114 1.10207C463.013 1.10074 463.974 1.18447 464.686 1.73519C465.335 2.23818 465.664 3.04604 465.92 3.82774C467.486 8.61279 467.353 13.9354 465.551 18.6372C464.673 20.9239 463.418 23.063 462.697 25.4037C461.977 27.7451 461.858 30.4414 463.176 32.5053C471.016 44.7785 472.347 60.9625 466.618 74.3522C460.889 87.7417 448.264 97.954 433.974 100.759C426.665 102.193 419.114 101.789 411.729 100.825C408.506 100.405 404.964 99.9447 402.238 101.711C397.26 104.935 391.834 107.463 386.164 109.199C384.757 109.631 383.274 110.017 381.83 109.736C379.668 109.316 378.009 107.427 377.32 105.335C376.631 103.243 376.761 100.972 377.073 98.7916C378.013 92.2146 382.962 81.1899 386.728 78.0836C384.79 70.7623 383.213 63.2715 383.252 55.6972C383.291 48.1231 385.041 40.4038 389.291 34.134C391.046 31.5445 393.197 29.2398 395.518 27.1426C407.257 16.5326 423.694 11.3243 439.402 13.2359ZM418.858 17.0393C408.66 19.4914 399.57 25.7617 392.937 33.8874C390.99 36.2731 389.229 38.8372 387.989 41.6562C387.011 43.8786 386.368 46.2367 385.92 48.6225C383.263 62.7806 387.873 78.1084 397.902 88.4514C398.12 88.6763 398.366 88.9124 398.677 88.951C399.062 88.9988 399.408 88.7342 399.703 88.4835C420.411 70.9673 437.511 49.2057 449.633 24.9436C449.921 24.3651 450.213 23.704 449.993 23.0968C449.828 22.641 449.411 22.3321 449.01 22.0599C440.332 16.1669 429.057 14.588 418.858 17.0393ZM449.908 91.4392C459.895 83.8245 466.111 71.6934 467.189 59.1813C467.434 56.3471 467.428 53.4742 466.886 50.6819C466.431 48.3344 465.603 46.0772 464.778 43.8325C463.582 40.578 462.387 37.3235 461.19 34.0693C460.873 33.2063 459.763 32.216 459.275 32.9957C445.748 54.6412 430.287 75.077 413.135 93.9805C412.565 94.6102 411.951 95.3678 412.094 96.2053C412.259 97.1744 413.325 97.6733 414.261 97.9733C426.219 101.812 439.921 99.0537 449.908 91.4392ZM381.065 104.862C382.154 105.984 383.964 105.872 385.5 105.584C393.562 104.077 400.983 100.018 407.379 94.8847C413.776 89.7518 419.23 83.554 424.468 77.2446C431.456 68.8277 438.123 60.1488 444.534 51.285C452.472 40.3079 460.125 28.8306 464.098 15.8791C464.867 13.3745 465.492 10.6738 464.745 8.16224C463.999 5.65052 461.405 3.51081 458.867 4.16327C453.48 5.54678 448.591 8.78773 445.217 13.2083C444.546 14.0878 445.451 15.4566 446.544 15.6176C447.638 15.7794 448.685 15.1586 449.58 14.5085C450.474 13.8585 451.394 13.1257 452.494 13.0143C454.175 12.8426 455.703 14.2713 456.157 15.8987C456.61 17.5261 456.223 19.2679 455.669 20.8637C454.642 23.8171 453.056 26.5398 451.438 29.2153C437.052 52.9954 419.218 74.6865 398.668 93.3976C396.817 95.0832 394.936 96.7504 392.853 98.137C391.76 98.8642 390.472 99.5362 389.191 99.2506C387.089 98.7832 386.357 96.1321 386.493 93.9843C386.699 90.7586 387.966 87.6093 390.053 85.1401C389.29 83.9066 388.528 82.6741 387.766 81.4407C382.44 86.7194 379.553 94.3662 380.061 101.848C380.135 102.928 380.312 104.085 381.065 104.862ZM396.653 91.9078C396.667 91.7607 396.556 91.6348 396.452 91.5285C395.381 90.4333 394.309 89.3371 393.238 88.241C392.753 87.7454 391.915 87.2469 391.461 87.7713C389.827 89.6611 388.903 92.1505 388.907 94.6487C388.908 95.1417 388.962 95.6806 389.307 96.0326C389.948 96.6893 391.052 96.2736 391.831 95.7897C393.491 94.757 395.045 93.5533 396.462 92.2058C396.549 92.1219 396.642 92.0276 396.653 91.9078ZM453.053 16.5722C452.902 16.2603 452.479 16.2018 452.136 16.2604C451.099 16.4365 450.206 17.5145 450.494 18.527C450.78 19.5405 452.447 19.8575 452.91 18.9122C453.051 18.627 453.065 18.2986 453.076 17.9812C453.087 17.6658 453.1 17.3512 453.111 17.0367C453.117 16.8789 453.122 16.7138 453.053 16.5722Z" fill="#00160A"/>
</svg>
